<svg xmlns="http://www.w3.org/2000/svg" width="1500" height="500" viewBox="0 0 1500 500">
  <defs>
    <linearGradient id="bg" x1="0" y1="0" x2="1" y2="1">
      <stop offset="0" stop-color="#05060a"/>
      <stop offset="1" stop-color="#0a0c14"/>
    </linearGradient>
    <linearGradient id="brand" x1="0" y1="0" x2="1" y2="1">
      <stop offset="0" stop-color="#22d3ee"/>
      <stop offset="0.5" stop-color="#818cf8"/>
      <stop offset="1" stop-color="#a855f7"/>
    </linearGradient>
    <radialGradient id="glowC" cx="22%" cy="0%" r="60%">
      <stop offset="0" stop-color="#22d3ee" stop-opacity="0.28"/>
      <stop offset="1" stop-color="#22d3ee" stop-opacity="0"/>
    </radialGradient>
    <radialGradient id="glowV" cx="85%" cy="20%" r="55%">
      <stop offset="0" stop-color="#a855f7" stop-opacity="0.26"/>
      <stop offset="1" stop-color="#a855f7" stop-opacity="0"/>
    </radialGradient>
  </defs>

  <rect width="1500" height="500" fill="url(#bg)"/>
  <rect width="1500" height="500" fill="url(#glowC)"/>
  <rect width="1500" height="500" fill="url(#glowV)"/>

  <g><line x1="895.6" y1="149.6" x2="988.3" y2="191.5" stroke="#5b6478" stroke-opacity="0.056" stroke-width="1"/><line x1="895.6" y1="149.6" x2="837.1" y2="100.3" stroke="#5b6478" stroke-opacity="0.072" stroke-width="1"/><line x1="895.6" y1="149.6" x2="861.1" y2="207.6" stroke="#5b6478" stroke-opacity="0.077" stroke-width="1"/><line x1="895.6" y1="149.6" x2="860.6" y2="118.7" stroke="#5b6478" stroke-opacity="0.090" stroke-width="1"/><line x1="895.6" y1="149.6" x2="886.9" y2="262.5" stroke="#5b6478" stroke-opacity="0.048" stroke-width="1"/><line x1="1480.6" y1="336.1" x2="1386.0" y2="404.8" stroke="#5b6478" stroke-opacity="0.046" stroke-width="1"/><line x1="1304.8" y1="457.7" x2="1386.0" y2="404.8" stroke="#5b6478" stroke-opacity="0.059" stroke-width="1"/><line x1="1304.8" y1="457.7" x2="1226.4" y2="417.9" stroke="#5b6478" stroke-opacity="0.064" stroke-width="1"/><line x1="1304.8" y1="457.7" x2="1260.4" y2="300.4" stroke="#5b6478" stroke-opacity="0.017" stroke-width="1"/><line x1="1304.8" y1="457.7" x2="1275.3" y2="301.9" stroke="#5b6478" stroke-opacity="0.020" stroke-width="1"/><line x1="1496.1" y1="104.8" x2="1489.1" y2="29.5" stroke="#5b6478" stroke-opacity="0.072" stroke-width="1"/><line x1="1496.1" y1="104.8" x2="1398.3" y2="124.3" stroke="#5b6478" stroke-opacity="0.057" stroke-width="1"/><line x1="1489.1" y1="29.5" x2="1398.3" y2="124.3" stroke="#5b6478" stroke-opacity="0.037" stroke-width="1"/><line x1="45.4" y1="36.0" x2="54.3" y2="169.5" stroke="#5b6478" stroke-opacity="0.035" stroke-width="1"/><line x1="1386.0" y1="404.8" x2="1226.4" y2="417.9" stroke="#5b6478" stroke-opacity="0.019" stroke-width="1"/><line x1="1386.0" y1="404.8" x2="1260.4" y2="300.4" stroke="#5b6478" stroke-opacity="0.017" stroke-width="1"/><line x1="1386.0" y1="404.8" x2="1275.3" y2="301.9" stroke="#5b6478" stroke-opacity="0.025" stroke-width="1"/><line x1="95.6" y1="309.1" x2="54.3" y2="169.5" stroke="#5b6478" stroke-opacity="0.028" stroke-width="1"/><line x1="1204.1" y1="73.2" x2="1185.3" y2="156.4" stroke="#5b6478" stroke-opacity="0.066" stroke-width="1"/><line x1="1204.1" y1="73.2" x2="1156.8" y2="101.2" stroke="#5b6478" stroke-opacity="0.085" stroke-width="1"/><line x1="1074.7" y1="369.4" x2="1226.4" y2="417.9" stroke="#5b6478" stroke-opacity="0.019" stroke-width="1"/><line x1="1074.7" y1="369.4" x2="1076.2" y2="293.4" stroke="#5b6478" stroke-opacity="0.072" stroke-width="1"/><line x1="1226.4" y1="417.9" x2="1260.4" y2="300.4" stroke="#5b6478" stroke-opacity="0.043" stroke-width="1"/><line x1="1226.4" y1="417.9" x2="1275.3" y2="301.9" stroke="#5b6478" stroke-opacity="0.041" stroke-width="1"/><line x1="988.3" y1="191.5" x2="837.1" y2="100.3" stroke="#5b6478" stroke-opacity="0.008" stroke-width="1"/><line x1="988.3" y1="191.5" x2="861.1" y2="207.6" stroke="#5b6478" stroke-opacity="0.039" stroke-width="1"/><line x1="988.3" y1="191.5" x2="1076.2" y2="293.4" stroke="#5b6478" stroke-opacity="0.035" stroke-width="1"/><line x1="988.3" y1="191.5" x2="860.6" y2="118.7" stroke="#5b6478" stroke-opacity="0.027" stroke-width="1"/><line x1="988.3" y1="191.5" x2="886.9" y2="262.5" stroke="#5b6478" stroke-opacity="0.042" stroke-width="1"/><line x1="1185.3" y1="156.4" x2="1260.4" y2="300.4" stroke="#5b6478" stroke-opacity="0.017" stroke-width="1"/><line x1="1185.3" y1="156.4" x2="1076.2" y2="293.4" stroke="#5b6478" stroke-opacity="0.009" stroke-width="1"/><line x1="1185.3" y1="156.4" x2="1156.8" y2="101.2" stroke="#5b6478" stroke-opacity="0.081" stroke-width="1"/><line x1="1185.3" y1="156.4" x2="1275.3" y2="301.9" stroke="#5b6478" stroke-opacity="0.012" stroke-width="1"/><line x1="837.1" y1="100.3" x2="861.1" y2="207.6" stroke="#5b6478" stroke-opacity="0.051" stroke-width="1"/><line x1="837.1" y1="100.3" x2="860.6" y2="118.7" stroke="#5b6478" stroke-opacity="0.101" stroke-width="1"/><line x1="837.1" y1="100.3" x2="886.9" y2="262.5" stroke="#5b6478" stroke-opacity="0.013" stroke-width="1"/><line x1="861.1" y1="207.6" x2="860.6" y2="118.7" stroke="#5b6478" stroke-opacity="0.064" stroke-width="1"/><line x1="861.1" y1="207.6" x2="886.9" y2="262.5" stroke="#5b6478" stroke-opacity="0.082" stroke-width="1"/><line x1="1260.4" y1="300.4" x2="1076.2" y2="293.4" stroke="#5b6478" stroke-opacity="0.004" stroke-width="1"/><line x1="1260.4" y1="300.4" x2="1275.3" y2="301.9" stroke="#5b6478" stroke-opacity="0.111" stroke-width="1"/><line x1="860.6" y1="118.7" x2="886.9" y2="262.5" stroke="#5b6478" stroke-opacity="0.028" stroke-width="1"/><line x1="442.5" y1="226.0" x2="590.3" y2="315.8" stroke="#5b6478" stroke-opacity="0.011" stroke-width="1"/><circle cx="895.6" cy="149.6" r="2.5" fill="#22d3ee" fill-opacity="0.5"/><circle cx="1480.6" cy="336.1" r="2.5" fill="#22d3ee" fill-opacity="0.5"/><circle cx="1304.8" cy="457.7" r="1.4" fill="#22d3ee" fill-opacity="0.5"/><circle cx="1496.1" cy="104.8" r="1.7" fill="#22d3ee" fill-opacity="0.5"/><circle cx="1489.1" cy="29.5" r="2.1" fill="#22d3ee" fill-opacity="0.5"/><circle cx="45.4" cy="36.0" r="2.8" fill="#22d3ee" fill-opacity="0.5"/><circle cx="1386.0" cy="404.8" r="3.0" fill="#22d3ee" fill-opacity="0.5"/><circle cx="95.6" cy="309.1" r="2.4" fill="#22d3ee" fill-opacity="0.5"/><circle cx="305.8" cy="446.2" r="1.4" fill="#22d3ee" fill-opacity="0.5"/><circle cx="1204.1" cy="73.2" r="1.3" fill="#22d3ee" fill-opacity="0.5"/><circle cx="1074.7" cy="369.4" r="3.3" fill="#22d3ee" fill-opacity="0.5"/><circle cx="1226.4" cy="417.9" r="3.0" fill="#22d3ee" fill-opacity="0.5"/><circle cx="54.3" cy="169.5" r="1.6" fill="#22d3ee" fill-opacity="0.5"/><circle cx="988.3" cy="191.5" r="1.9" fill="#22d3ee" fill-opacity="0.5"/><circle cx="1185.3" cy="156.4" r="3.3" fill="#22d3ee" fill-opacity="0.5"/><circle cx="837.1" cy="100.3" r="2.3" fill="#22d3ee" fill-opacity="0.5"/><circle cx="861.1" cy="207.6" r="1.9" fill="#22d3ee" fill-opacity="0.5"/><circle cx="1260.4" cy="300.4" r="2.0" fill="#22d3ee" fill-opacity="0.5"/><circle cx="1076.2" cy="293.4" r="2.2" fill="#22d3ee" fill-opacity="0.5"/><circle cx="860.6" cy="118.7" r="1.4" fill="#22d3ee" fill-opacity="0.5"/><circle cx="886.9" cy="262.5" r="2.3" fill="#22d3ee" fill-opacity="0.5"/><circle cx="442.5" cy="226.0" r="1.4" fill="#22d3ee" fill-opacity="0.5"/><circle cx="1156.8" cy="101.2" r="1.5" fill="#22d3ee" fill-opacity="0.5"/><circle cx="1275.3" cy="301.9" r="2.7" fill="#22d3ee" fill-opacity="0.5"/><circle cx="1398.3" cy="124.3" r="2.4" fill="#22d3ee" fill-opacity="0.5"/><circle cx="590.3" cy="315.8" r="2.8" fill="#22d3ee" fill-opacity="0.5"/></g>

  <!-- pill -->
  <g>
    <rect x="481.826171875" y="86" width="536.34765625" height="44" rx="22"
      fill="#22d3ee" fill-opacity="0.10" stroke="#22d3ee" stroke-opacity="0.35"/>
    <path d="M516.30 118.21Q514.19 118.21 512.49 117.25Q510.80 116.28 509.82 114.44Q508.84 112.61 508.84 110.01Q508.84 107.40 509.82 105.56Q510.80 103.71 512.49 102.75Q514.19 101.78 516.30 101.78Q518.43 101.78 520.12 102.75Q521.80 103.71 522.78 105.56Q523.77 107.40 523.77 110.01Q523.77 112.61 522.78 114.44Q521.80 116.28 520.12 117.25Q518.43 118.21 516.30 118.21M516.30 115.30Q517.55 115.30 518.48 114.70Q519.41 114.09 519.92 112.90Q520.44 111.72 520.44 110.01Q520.44 108.28 519.92 107.09Q519.41 105.90 518.48 105.30Q517.55 104.69 516.30 104.69Q515.07 104.69 514.13 105.30Q513.20 105.92 512.68 107.10Q512.17 108.29 512.17 110.01Q512.17 111.72 512.68 112.90Q513.20 114.08 514.13 114.69Q515.07 115.30 516.30 115.30M532.50 118L529.23 118L529.23 101.99L535.47 101.99Q537.29 101.99 538.57 102.69Q539.85 103.38 540.52 104.60Q541.19 105.82 541.19 107.40Q541.19 108.99 540.51 110.20Q539.83 111.40 538.54 112.09Q537.24 112.77 535.39 112.77L532.50 112.77L532.50 118M532.50 104.70L532.50 110.13L534.87 110.13Q535.88 110.13 536.53 109.78Q537.18 109.43 537.49 108.82Q537.81 108.20 537.81 107.40Q537.81 106.59 537.49 105.98Q537.18 105.38 536.52 105.04Q535.87 104.70 534.86 104.70L532.50 104.70M557.21 118L546.48 118L546.48 101.99L557.19 101.99L557.19 104.71L549.76 104.71L549.76 108.58L556.63 108.58L556.63 111.25L549.76 111.25L549.76 115.28L557.21 115.28L557.21 118M566.20 118L562.85 118L562.85 101.99L566.50 101.99L571.56 110.09Q571.94 110.72 572.34 111.45Q572.74 112.18 573.16 113.07Q573.36 113.51 573.56 114Q573.53 113.60 573.51 113.18Q573.45 112.17 573.41 111.24Q573.36 110.32 573.36 109.67L573.36 101.99L576.71 101.99L576.71 118L573.05 118L568.45 110.65Q567.95 109.83 567.52 109.05Q567.09 108.27 566.63 107.32Q566.34 106.75 565.98 106.03Q566.03 106.69 566.06 107.30Q566.12 108.36 566.16 109.23Q566.20 110.09 566.20 110.64L566.20 118M582.67 110.13L589.95 110.13L589.95 112.70L582.67 112.70L582.67 110.13M601.77 118.24Q599.85 118.24 598.42 117.65Q597 117.05 596.21 115.89Q595.41 114.73 595.37 113.04L598.56 113.04Q598.62 113.84 599.04 114.39Q599.46 114.93 600.16 115.20Q600.86 115.46 601.74 115.46Q602.62 115.46 603.27 115.21Q603.92 114.96 604.28 114.50Q604.65 114.04 604.65 113.42Q604.65 112.88 604.32 112.51Q603.99 112.13 603.38 111.87Q602.77 111.60 601.89 111.39L600.13 110.95Q598.10 110.46 596.95 109.40Q595.80 108.34 595.80 106.60Q595.80 105.15 596.58 104.07Q597.36 102.98 598.71 102.38Q600.07 101.78 601.81 101.78Q603.59 101.78 604.91 102.39Q606.23 102.99 606.97 104.07Q607.71 105.15 607.73 106.56L604.56 106.56Q604.48 105.59 603.74 105.07Q603.01 104.54 601.78 104.54Q600.95 104.54 600.36 104.78Q599.77 105.01 599.47 105.43Q599.16 105.85 599.16 106.39Q599.16 106.98 599.51 107.37Q599.87 107.76 600.46 108Q601.05 108.25 601.72 108.41L603.17 108.76Q604.18 108.99 605.05 109.37Q605.92 109.76 606.57 110.32Q607.23 110.89 607.59 111.66Q607.95 112.44 607.95 113.45Q607.95 114.90 607.22 115.98Q606.49 117.05 605.10 117.65Q603.71 118.24 601.77 118.24M620.34 118.21Q618.22 118.21 616.53 117.25Q614.84 116.28 613.85 114.44Q612.87 112.61 612.87 110.01Q612.87 107.40 613.85 105.56Q614.84 103.71 616.53 102.75Q618.22 101.78 620.34 101.78Q622.46 101.78 624.15 102.75Q625.84 103.71 626.82 105.56Q627.80 107.40 627.80 110.01Q627.80 112.61 626.82 114.44Q625.84 116.28 624.15 117.25Q622.46 118.21 620.34 118.21M620.34 115.30Q621.58 115.30 622.51 114.70Q623.44 114.09 623.96 112.90Q624.47 111.72 624.47 110.01Q624.47 108.28 623.96 107.09Q623.44 105.90 622.51 105.30Q621.58 104.69 620.34 104.69Q619.10 104.69 618.17 105.30Q617.23 105.92 616.72 107.10Q616.20 108.29 616.20 110.01Q616.20 111.72 616.72 112.90Q617.23 114.08 618.17 114.69Q619.10 115.30 620.34 115.30M639.86 118.23Q637.88 118.23 636.39 117.49Q634.91 116.75 634.08 115.44Q633.26 114.13 633.26 112.38L633.26 101.99L636.54 101.99L636.54 112.11Q636.54 113.05 636.95 113.77Q637.37 114.50 638.11 114.91Q638.86 115.33 639.86 115.33Q640.87 115.33 641.61 114.91Q642.36 114.50 642.77 113.77Q643.19 113.05 643.19 112.11L643.19 101.99L646.47 101.99L646.47 112.38Q646.47 114.13 645.65 115.44Q644.82 116.75 643.33 117.49Q641.84 118.23 639.86 118.23M655.64 118L652.36 118L652.36 101.99L658.61 101.99Q660.43 101.99 661.71 102.64Q662.99 103.28 663.66 104.45Q664.33 105.63 664.33 107.20Q664.33 108.78 663.65 109.93Q662.97 111.07 661.68 111.67Q661.58 111.72 661.50 111.76L664.90 118L661.27 118L658.21 112.29L655.64 112.29L655.64 118M655.64 104.70L655.64 109.63L658 109.63Q659.01 109.63 659.66 109.36Q660.30 109.08 660.63 108.54Q660.95 108 660.95 107.20Q660.95 106.39 660.63 105.83Q660.30 105.28 659.65 104.99Q659 104.70 657.99 104.70L655.64 104.70M676.81 118.21Q674.68 118.21 673 117.25Q671.32 116.28 670.34 114.44Q669.37 112.61 669.37 110.01Q669.37 107.40 670.35 105.56Q671.33 103.71 673.01 102.75Q674.70 101.78 676.81 101.78Q678.17 101.78 679.35 102.16Q680.52 102.54 681.44 103.27Q682.35 104 682.93 105.06Q683.51 106.12 683.69 107.47L680.37 107.47Q680.26 106.81 679.96 106.30Q679.65 105.79 679.20 105.43Q678.74 105.07 678.15 104.88Q677.56 104.69 676.87 104.69Q675.62 104.69 674.68 105.31Q673.74 105.94 673.22 107.12Q672.70 108.31 672.70 110.01Q672.70 111.74 673.23 112.92Q673.75 114.10 674.69 114.70Q675.62 115.30 676.86 115.30Q677.55 115.30 678.13 115.12Q678.72 114.93 679.19 114.57Q679.65 114.21 679.96 113.69Q680.26 113.18 680.38 112.52L683.70 112.52Q683.57 113.64 683.04 114.66Q682.51 115.68 681.63 116.49Q680.75 117.29 679.53 117.75Q678.32 118.21 676.81 118.21M699.82 118L689.09 118L689.09 101.99L699.80 101.99L699.80 104.71L692.36 104.71L692.36 108.58L699.24 108.58L699.24 111.25L692.36 111.25L692.36 115.28L699.82 115.28L699.82 118M717.01 118L713.66 118L713.66 101.99L717.31 101.99L722.37 110.09Q722.76 110.72 723.16 111.45Q723.55 112.18 723.97 113.07Q724.18 113.51 724.37 114Q724.35 113.60 724.33 113.18Q724.26 112.17 724.22 111.24Q724.18 110.32 724.18 109.67L724.18 101.99L727.53 101.99L727.53 118L723.87 118L719.27 110.65Q718.76 109.83 718.33 109.05Q717.90 108.27 717.44 107.32Q717.15 106.75 716.80 106.03Q716.84 106.69 716.87 107.30Q716.94 108.36 716.97 109.23Q717.01 110.09 717.01 110.64L717.01 118M744.16 118L733.43 118L733.43 101.99L744.14 101.99L744.14 104.71L736.71 104.71L736.71 108.58L743.58 108.58L743.58 111.25L736.71 111.25L736.71 115.28L744.16 115.28L744.16 118M754.05 104.71L749.15 104.71L749.15 101.99L762.22 101.99L762.22 104.71L757.33 104.71L757.33 118L754.05 118L754.05 104.71M774.60 118L770.85 118L766.55 101.99L770.13 101.99L771.99 109.87Q772.21 110.86 772.40 111.98Q772.59 113.10 772.77 114.23Q772.82 114.48 772.85 114.71Q772.89 114.48 772.93 114.23Q773.13 113.10 773.33 111.98Q773.54 110.86 773.78 109.87L775.74 101.99L779.14 101.99L781.09 109.87Q781.33 110.86 781.54 111.98Q781.74 113.10 781.95 114.23Q781.98 114.47 782.02 114.68Q782.05 114.47 782.10 114.23Q782.27 113.10 782.47 111.98Q782.67 110.86 782.88 109.87L784.74 101.99L788.33 101.99L784.02 118L780.28 118L778.15 109.81Q777.81 108.45 777.57 106.86Q777.50 106.40 777.42 105.94Q777.36 106.37 777.31 106.80Q777.09 108.36 776.71 109.81L774.60 118M800.33 118.21Q798.21 118.21 796.52 117.25Q794.83 116.28 793.85 114.44Q792.86 112.61 792.86 110.01Q792.86 107.40 793.85 105.56Q794.83 103.71 796.52 102.75Q798.21 101.78 800.33 101.78Q802.46 101.78 804.14 102.75Q805.83 103.71 806.81 105.56Q807.79 107.40 807.79 110.01Q807.79 112.61 806.81 114.44Q805.83 116.28 804.14 117.25Q802.46 118.21 800.33 118.21M800.33 115.30Q801.58 115.30 802.50 114.70Q803.43 114.09 803.95 112.90Q804.46 111.72 804.46 110.01Q804.46 108.28 803.95 107.09Q803.43 105.90 802.50 105.30Q801.58 104.69 800.33 104.69Q799.09 104.69 798.16 105.30Q797.22 105.92 796.71 107.10Q796.19 108.29 796.19 110.01Q796.19 111.72 796.71 112.90Q797.22 114.08 798.16 114.69Q799.09 115.30 800.33 115.30M816.53 118L813.25 118L813.25 101.99L819.50 101.99Q821.32 101.99 822.60 102.64Q823.88 103.28 824.55 104.45Q825.22 105.63 825.22 107.20Q825.22 108.78 824.54 109.93Q823.86 111.07 822.57 111.67Q822.47 111.72 822.39 111.76L825.79 118L822.16 118L819.10 112.29L816.53 112.29L816.53 118M816.53 104.70L816.53 109.63L818.89 109.63Q819.90 109.63 820.55 109.36Q821.19 109.08 821.52 108.54Q821.84 108 821.84 107.20Q821.84 106.39 821.52 105.83Q821.19 105.28 820.54 104.99Q819.89 104.70 818.88 104.70L816.53 104.70M833.98 118L830.70 118L830.70 101.99L833.98 101.99L833.98 106.37L833.94 110Q834.01 109.87 834.09 109.75Q834.56 109 835.13 108.24Q835.70 107.48 836.43 106.59L840.35 101.99L844.36 101.99L838.37 108.92L844.53 118L840.65 118L836.10 111.08L833.98 113.42L833.98 118M849.53 101.99L852.80 101.99L852.80 118L849.53 118L849.53 101.99M862.05 118L858.70 118L858.70 101.99L862.36 101.99L867.42 110.09Q867.80 110.72 868.20 111.45Q868.60 112.18 869.02 113.07Q869.22 113.51 869.41 114Q869.39 113.60 869.37 113.18Q869.31 112.17 869.26 111.24Q869.22 110.32 869.22 109.67L869.22 101.99L872.57 101.99L872.57 118L868.91 118L864.31 110.65Q863.81 109.83 863.38 109.05Q862.95 108.27 862.48 107.32Q862.19 106.75 861.84 106.03Q861.88 106.69 861.92 107.30Q861.98 108.36 862.02 109.23Q862.05 110.09 862.05 110.64L862.05 118M885.56 118.21Q883.32 118.21 881.62 117.22Q879.93 116.23 878.98 114.39Q878.03 112.54 878.03 110.02Q878.03 107.42 879.02 105.58Q880.01 103.73 881.69 102.76Q883.38 101.78 885.49 101.78Q886.84 101.78 888.01 102.17Q889.17 102.56 890.08 103.28Q890.99 104 891.56 104.99Q892.14 105.97 892.31 107.16L888.98 107.16Q888.81 106.58 888.50 106.12Q888.19 105.67 887.76 105.35Q887.32 105.02 886.76 104.86Q886.21 104.69 885.54 104.69Q884.30 104.69 883.36 105.31Q882.41 105.93 881.89 107.11Q881.36 108.29 881.36 109.99Q881.36 111.68 881.88 112.87Q882.40 114.06 883.35 114.68Q884.29 115.30 885.58 115.30Q886.74 115.30 887.57 114.88Q888.40 114.47 888.85 113.68Q889.27 112.94 889.29 111.96L885.81 111.96L885.81 109.47L892.47 109.47L892.47 111.47Q892.47 113.57 891.58 115.08Q890.69 116.59 889.13 117.40Q887.57 118.21 885.56 118.21M910.45 104.71L905.55 104.71L905.55 101.99L918.62 101.99L918.62 104.71L913.73 104.71L913.73 118L910.45 118L910.45 104.71M930.90 118.21Q928.79 118.21 927.09 117.25Q925.40 116.28 924.42 114.44Q923.44 112.61 923.44 110.01Q923.44 107.40 924.42 105.56Q925.40 103.71 927.09 102.75Q928.79 101.78 930.90 101.78Q933.03 101.78 934.72 102.75Q936.40 103.71 937.39 105.56Q938.37 107.40 938.37 110.01Q938.37 112.61 937.39 114.44Q936.40 116.28 934.72 117.25Q933.03 118.21 930.90 118.21M930.90 115.30Q932.15 115.30 933.08 114.70Q934.01 114.09 934.52 112.90Q935.04 111.72 935.04 110.01Q935.04 108.28 934.52 107.09Q934.01 105.90 933.08 105.30Q932.15 104.69 930.90 104.69Q929.67 104.69 928.73 105.30Q927.80 105.92 927.28 107.10Q926.77 108.29 926.77 110.01Q926.77 111.72 927.28 112.90Q927.80 114.08 928.73 114.69Q929.67 115.30 930.90 115.30M950.85 118.21Q948.74 118.21 947.05 117.25Q945.35 116.28 944.37 114.44Q943.39 112.61 943.39 110.01Q943.39 107.40 944.37 105.56Q945.35 103.71 947.05 102.75Q948.74 101.78 950.85 101.78Q952.98 101.78 954.67 102.75Q956.35 103.71 957.34 105.56Q958.32 107.40 958.32 110.01Q958.32 112.61 957.34 114.44Q956.35 116.28 954.67 117.25Q952.98 118.21 950.85 118.21M950.85 115.30Q952.10 115.30 953.03 114.70Q953.96 114.09 954.47 112.90Q954.99 111.72 954.99 110.01Q954.99 108.28 954.47 107.09Q953.96 105.90 953.03 105.30Q952.10 104.69 950.85 104.69Q949.62 104.69 948.68 105.30Q947.75 105.92 947.23 107.10Q946.72 108.29 946.72 110.01Q946.72 111.72 947.23 112.90Q947.75 114.08 948.68 114.69Q949.62 115.30 950.85 115.30M973.96 118L963.78 118L963.78 101.99L967.06 101.99L967.06 115.28L973.96 115.28L973.96 118M985.08 118.24Q983.16 118.24 981.74 117.65Q980.31 117.05 979.52 115.89Q978.72 114.73 978.68 113.04L981.87 113.04Q981.94 113.84 982.36 114.39Q982.77 114.93 983.47 115.20Q984.17 115.46 985.05 115.46Q985.93 115.46 986.58 115.21Q987.23 114.96 987.60 114.50Q987.96 114.04 987.96 113.42Q987.96 112.88 987.64 112.51Q987.31 112.13 986.70 111.87Q986.08 111.60 985.20 111.39L983.44 110.95Q981.41 110.46 980.26 109.40Q979.11 108.34 979.11 106.60Q979.11 105.15 979.89 104.07Q980.67 102.98 982.03 102.38Q983.39 101.78 985.13 101.78Q986.90 101.78 988.22 102.39Q989.54 102.99 990.28 104.07Q991.02 105.15 991.05 106.56L987.88 106.56Q987.79 105.59 987.06 105.07Q986.32 104.54 985.09 104.54Q984.27 104.54 983.68 104.78Q983.09 105.01 982.78 105.43Q982.47 105.85 982.47 106.39Q982.47 106.98 982.83 107.37Q983.18 107.76 983.77 108Q984.36 108.25 985.03 108.41L986.48 108.76Q987.49 108.99 988.36 109.37Q989.23 109.76 989.89 110.32Q990.54 110.89 990.90 111.66Q991.26 112.44 991.26 113.45Q991.26 114.90 990.53 115.98Q989.80 117.05 988.41 117.65Q987.03 118.24 985.08 118.24" fill="#9fe9f6"/>
  </g>

  <!-- logo mark -->
  <g transform="translate(458.07068359375, 166) scale(0.92)">
    <path d="M 28 22 L 28 64 A 13 13 0 0 0 54 64 L 54 36 A 13 13 0 0 1 80 36 L 80 78"
      fill="none" stroke="url(#brand)" stroke-width="15" stroke-linecap="round" stroke-linejoin="round"/>
  </g>

  <!-- wordmark -->
  <path d="M579.90 280L564.70 280L564.70 217.43L580.99 217.43L598.46 245.69Q600.14 248.51 601.76 251.51Q603.38 254.51 604.97 258.16Q605.73 259.89 606.48 261.86Q606.40 260.43 606.32 258.92Q606.02 254.72 605.81 250.75Q605.60 246.78 605.60 244.05L605.60 217.43L620.80 217.43L620.80 280L604.47 280L588.47 254.09Q586.33 250.52 584.59 247.33Q582.84 244.14 581.12 240.40Q580.15 238.34 579.02 235.91Q579.15 238.18 579.32 240.36Q579.57 244.64 579.73 248.19Q579.90 251.74 579.90 254.09L579.90 280M651.30 280.88Q643.95 280.88 638.66 277.84Q633.37 274.79 630.53 269.35Q627.70 263.92 627.70 256.69Q627.70 249.43 630.53 243.99Q633.37 238.55 638.66 235.51Q643.95 232.46 651.30 232.46Q658.65 232.46 663.94 235.51Q669.23 238.55 672.04 243.99Q674.86 249.43 674.86 256.69Q674.86 263.92 672.04 269.35Q669.23 274.79 663.94 277.84Q658.65 280.88 651.30 280.88M651.30 269.67Q654.11 269.67 656.04 268.03Q657.97 266.39 658.96 263.46Q659.95 260.52 659.95 256.61Q659.95 252.71 658.96 249.79Q657.97 246.87 656.04 245.27Q654.11 243.68 651.30 243.68Q648.48 243.68 646.55 245.27Q644.62 246.87 643.63 249.79Q642.65 252.71 642.65 256.61Q642.65 260.52 643.63 263.46Q644.62 266.39 646.55 268.03Q648.48 269.67 651.30 269.67M711.82 280L694.85 280L677.84 233.05L693.30 233.05L700.31 256.02Q701.74 260.64 702.79 265.47Q703.17 267.23 703.54 269.08Q703.96 267.23 704.34 265.47Q705.35 260.68 706.73 256.02L713.62 233.05L728.91 233.05L711.82 280M746.80 280.84Q742.31 280.84 738.80 279.31Q735.30 277.77 733.32 274.69Q731.35 271.60 731.35 266.98Q731.35 263.08 732.71 260.39Q734.08 257.70 736.52 256.02Q738.95 254.34 742.10 253.46Q745.25 252.58 748.82 252.29Q752.81 251.95 755.24 251.55Q757.68 251.15 758.81 250.35Q759.95 249.56 759.95 248.13L759.95 247.96Q759.95 246.32 759.19 245.19Q758.44 244.05 757.01 243.47Q755.58 242.88 753.56 242.88Q751.55 242.88 749.97 243.47Q748.40 244.05 747.39 245.15Q746.38 246.24 745.96 247.71L732.69 245.99Q733.62 241.96 736.33 238.91Q739.03 235.87 743.42 234.17Q747.81 232.46 753.69 232.46Q758.06 232.46 761.86 233.49Q765.66 234.52 768.51 236.52Q771.37 238.51 772.96 241.43Q774.56 244.35 774.56 248.13L774.56 280L760.79 280L760.79 273.41L760.41 273.41Q759.15 275.84 757.20 277.48Q755.24 279.12 752.66 279.98Q750.08 280.84 746.80 280.84M751.25 271.14Q753.73 271.14 755.73 270.13Q757.72 269.12 758.90 267.36Q760.07 265.60 760.07 263.29L760.07 258.79Q759.44 259.13 758.50 259.42Q757.55 259.72 756.42 259.95Q755.29 260.18 754.15 260.37Q753.02 260.56 751.97 260.73Q749.83 261.02 748.32 261.73Q746.80 262.45 746.01 263.58Q745.21 264.71 745.21 266.31Q745.21 267.86 746.01 268.94Q746.80 270.01 748.15 270.57Q749.49 271.14 751.25 271.14M815.94 280L801.11 280L801.11 217.43L826.73 217.43Q833.78 217.43 838.91 220.16Q844.03 222.89 846.78 227.76Q849.53 232.63 849.53 239.06Q849.53 245.52 846.72 250.31Q843.90 255.10 838.70 257.79Q833.49 260.47 826.31 260.47L815.94 260.47L815.94 280M815.94 229.44L815.94 248.76L823.62 248.76Q827.11 248.76 829.46 247.54Q831.81 246.32 832.99 244.14Q834.16 241.96 834.16 239.06Q834.16 236.12 832.99 233.96Q831.81 231.79 829.44 230.62Q827.07 229.44 823.58 229.44L815.94 229.44M870.79 280L856.13 280L856.13 233.05L870.37 233.05L870.37 241.62L870.87 241.62Q872.13 236.96 875.05 234.71Q877.97 232.46 881.83 232.46Q882.84 232.46 883.95 232.59Q885.07 232.72 885.99 232.97L885.99 245.73Q884.94 245.36 883.24 245.17Q881.54 244.98 880.19 244.98Q877.51 244.98 875.36 246.18Q873.22 247.37 872.01 249.47Q870.79 251.57 870.79 254.38L870.79 280M913.04 280.88Q905.69 280.88 900.40 277.84Q895.11 274.79 892.27 269.35Q889.44 263.92 889.44 256.69Q889.44 249.43 892.27 243.99Q895.11 238.55 900.40 235.51Q905.69 232.46 913.04 232.46Q920.39 232.46 925.68 235.51Q930.97 238.55 933.78 243.99Q936.60 249.43 936.60 256.69Q936.60 263.92 933.78 269.35Q930.97 274.79 925.68 277.84Q920.39 280.88 913.04 280.88M913.04 269.67Q915.85 269.67 917.78 268.03Q919.72 266.39 920.70 263.46Q921.69 260.52 921.69 256.61Q921.69 252.71 920.70 249.79Q919.72 246.87 917.78 245.27Q915.85 243.68 913.04 243.68Q910.23 243.68 908.29 245.27Q906.36 246.87 905.38 249.79Q904.39 252.71 904.39 256.61Q904.39 260.52 905.38 263.46Q906.36 266.39 908.29 268.03Q910.23 269.67 913.04 269.67M955.29 280L940.05 280L954.62 255.90L940.93 233.05L956.47 233.05L960.08 239.77Q962.01 243.42 963.61 247.16Q963.94 248 964.32 248.84Q964.66 248.04 965.03 247.20Q966.67 243.42 968.69 239.77L972.47 233.05L987.75 233.05L973.68 255.98L988.38 280L972.93 280L968.39 271.85Q966.38 268.20 964.70 264.38Q964.32 263.58 963.98 262.78Q963.65 263.58 963.31 264.38Q961.67 268.20 959.74 271.85L955.29 280M993.47 296.46L996.75 285.75L998.59 286.26Q1001.24 286.93 1003.23 286.63Q1005.23 286.34 1006.30 285.17Q1007.37 283.99 1007.24 282.06L1007.20 280.08L989.69 233.05L1005.14 233.05L1012.16 256.02Q1013.58 260.73 1014.42 265.47Q1014.63 266.90 1014.93 268.37Q1015.26 266.86 1015.60 265.43Q1016.73 260.64 1018.20 256.02L1025.72 233.05L1041.01 233.05L1021.31 284.96Q1019.88 288.73 1017.57 291.65Q1015.26 294.57 1011.67 296.23Q1008.08 297.89 1002.79 297.89Q1000.11 297.89 997.61 297.49Q995.11 297.09 993.47 296.46" fill="#eef1f7"/>

  <!-- tagline -->
  <path d="M396.65 350L391.59 350L391.59 325.26L396.65 325.26L396.65 332.02L396.59 337.63Q396.70 337.43 396.82 337.25Q397.55 336.09 398.43 334.92Q399.31 333.75 400.44 332.37L406.50 325.26L412.69 325.26L403.44 335.97L412.96 350L406.96 350L399.92 339.31L396.65 342.93L396.65 350M424.11 350.37Q421.27 350.37 419.21 349.20Q417.15 348.04 416.05 345.90Q414.95 343.76 414.95 340.82Q414.95 337.95 416.04 335.79Q417.14 333.63 419.15 332.42Q421.16 331.21 423.86 331.21Q425.69 331.21 427.27 331.79Q428.84 332.37 430.04 333.54Q431.23 334.71 431.91 336.47Q432.58 338.23 432.58 340.62L432.58 342.01L419.88 342.01Q419.93 343.43 420.43 344.42Q420.96 345.52 421.93 346.07Q422.90 346.61 424.19 346.61Q425.07 346.61 425.79 346.36Q426.50 346.12 427.01 345.63Q427.51 345.14 427.78 344.42L432.30 345.27Q431.85 346.80 430.73 347.95Q429.62 349.10 427.95 349.73Q426.29 350.37 424.11 350.37M419.91 338.89L427.78 338.89Q427.68 337.96 427.38 337.20Q426.93 336.14 426.06 335.55Q425.19 334.96 423.91 334.96Q422.62 334.96 421.71 335.56Q420.81 336.15 420.34 337.17Q419.99 337.95 419.91 338.89M444.16 350.37Q441.33 350.37 439.27 349.20Q437.21 348.04 436.10 345.90Q435 343.76 435 340.82Q435 337.95 436.10 335.79Q437.19 333.63 439.20 332.42Q441.21 331.21 443.92 331.21Q445.74 331.21 447.32 331.79Q448.90 332.37 450.09 333.54Q451.29 334.71 451.96 336.47Q452.63 338.23 452.63 340.62L452.63 342.01L439.93 342.01Q439.98 343.43 440.48 344.42Q441.01 345.52 441.98 346.07Q442.95 346.61 444.25 346.61Q445.13 346.61 445.84 346.36Q446.56 346.12 447.06 345.63Q447.57 345.14 447.83 344.42L452.35 345.27Q451.90 346.80 450.79 347.95Q449.68 349.10 448.01 349.73Q446.34 350.37 444.16 350.37M439.96 338.89L447.83 338.89Q447.73 337.96 447.44 337.20Q446.99 336.14 446.12 335.55Q445.24 334.96 443.97 334.96Q442.67 334.96 441.77 335.56Q440.86 336.15 440.40 337.17Q440.05 337.95 439.96 338.89M460.82 356.94L455.83 356.94L455.83 331.44L460.73 331.44L460.73 334.56L460.96 334.56Q461.31 333.83 461.95 333.05Q462.59 332.27 463.64 331.74Q464.68 331.21 466.26 331.21Q468.32 331.21 470.03 332.27Q471.74 333.33 472.76 335.46Q473.78 337.58 473.78 340.75Q473.78 343.84 472.78 345.97Q471.79 348.11 470.08 349.21Q468.37 350.32 466.23 350.32Q464.72 350.32 463.67 349.80Q462.62 349.29 461.97 348.53Q461.31 347.78 460.96 347.03L460.82 347.03L460.82 356.94M464.70 346.31Q465.99 346.31 466.88 345.60Q467.77 344.89 468.23 343.63Q468.68 342.36 468.68 340.74Q468.68 339.11 468.23 337.86Q467.77 336.62 466.89 335.91Q466.01 335.19 464.70 335.19Q463.42 335.19 462.53 335.88Q461.63 336.57 461.16 337.81Q460.70 339.04 460.70 340.74Q460.70 342.41 461.17 343.67Q461.65 344.92 462.54 345.62Q463.44 346.31 464.70 346.31M490.66 331.44L494.13 331.44L494.13 335.24L490.66 335.24L490.66 344.57Q490.66 345.45 491.05 345.87Q491.44 346.30 492.36 346.30Q492.64 346.30 493.15 346.22Q493.67 346.15 493.93 346.08L494.65 349.82Q493.82 350.07 493 350.17Q492.17 350.27 491.43 350.27Q488.64 350.27 487.16 348.90Q485.68 347.54 485.68 345L485.68 335.24L483.13 335.24L483.13 331.44L485.68 331.44L485.68 327.02L490.66 327.02L490.66 331.44M502.15 339.26L502.15 350L497.17 350L497.17 325.26L502.05 325.26L502.05 335.01Q502.75 333.43 503.88 332.47Q505.35 331.21 507.71 331.21Q509.64 331.21 511.07 332.05Q512.51 332.88 513.31 334.45Q514.10 336.02 514.10 338.20L514.10 350L509.11 350L509.11 339.06Q509.11 337.33 508.22 336.35Q507.33 335.37 505.75 335.37Q504.71 335.37 503.89 335.83Q503.06 336.29 502.61 337.15Q502.15 338.01 502.15 339.26M526.52 350.37Q523.68 350.37 521.62 349.20Q519.57 348.04 518.46 345.90Q517.36 343.76 517.36 340.82Q517.36 337.95 518.45 335.79Q519.55 333.63 521.56 332.42Q523.57 331.21 526.27 331.21Q528.10 331.21 529.68 331.79Q531.25 332.37 532.45 333.54Q533.64 334.71 534.32 336.47Q534.99 338.23 534.99 340.62L534.99 342.01L522.29 342.01Q522.34 343.43 522.84 344.42Q523.37 345.52 524.34 346.07Q525.31 346.61 526.60 346.61Q527.48 346.61 528.20 346.36Q528.91 346.12 529.42 345.63Q529.92 345.14 530.19 344.42L534.71 345.27Q534.26 346.80 533.15 347.95Q532.03 349.10 530.36 349.73Q528.70 350.37 526.52 350.37M522.32 338.89L530.19 338.89Q530.09 337.96 529.79 337.20Q529.34 336.14 528.47 335.55Q527.60 334.96 526.32 334.96Q525.03 334.96 524.12 335.56Q523.22 336.15 522.75 337.17Q522.40 337.95 522.32 338.89M551.02 350L546.04 350L546.04 331.44L551.02 331.44L551.02 350M548.53 329.02Q547.40 329.02 546.61 328.27Q545.81 327.52 545.81 326.46Q545.81 325.40 546.61 324.65Q547.40 323.90 548.53 323.90Q549.66 323.90 550.47 324.64Q551.27 325.38 551.27 326.46Q551.27 327.52 550.47 328.27Q549.66 329.02 548.53 329.02M560.04 339.26L560.04 350L555.06 350L555.06 331.44L559.76 331.44L559.82 335.27Q560.54 333.51 561.76 332.47Q563.24 331.21 565.60 331.21Q567.52 331.21 568.96 332.05Q570.40 332.88 571.19 334.45Q571.97 336.02 571.97 338.20L571.97 350L566.99 350L566.99 339.06Q566.99 337.33 566.11 336.35Q565.22 335.37 563.64 335.37Q562.59 335.37 561.77 335.83Q560.95 336.29 560.49 337.15Q560.04 338.01 560.04 339.26M581.77 331.44L585.24 331.44L585.24 335.24L581.77 335.24L581.77 344.57Q581.77 345.45 582.16 345.87Q582.55 346.30 583.46 346.30Q583.74 346.30 584.26 346.22Q584.77 346.15 585.04 346.08L585.75 349.82Q584.92 350.07 584.10 350.17Q583.28 350.27 582.53 350.27Q579.74 350.27 578.27 348.90Q576.79 347.54 576.79 345L576.79 335.24L574.23 335.24L574.23 331.44L576.79 331.44L576.79 327.02L581.77 327.02L581.77 331.44M596.66 350.37Q593.82 350.37 591.76 349.20Q589.70 348.04 588.60 345.90Q587.49 343.76 587.49 340.82Q587.49 337.95 588.59 335.79Q589.69 333.63 591.69 332.42Q593.70 331.21 596.41 331.21Q598.24 331.21 599.81 331.79Q601.39 332.37 602.59 333.54Q603.78 334.71 604.45 336.47Q605.13 338.23 605.13 340.62L605.13 342.01L592.43 342.01Q592.48 343.43 592.97 344.42Q593.50 345.52 594.48 346.07Q595.45 346.61 596.74 346.61Q597.62 346.61 598.34 346.36Q599.05 346.12 599.56 345.63Q600.06 345.14 600.33 344.42L604.84 345.27Q604.40 346.80 603.28 347.95Q602.17 349.10 600.50 349.73Q598.83 350.37 596.66 350.37M592.46 338.89L600.33 338.89Q600.23 337.96 599.93 337.20Q599.48 336.14 598.61 335.55Q597.74 334.96 596.46 334.96Q595.16 334.96 594.26 335.56Q593.36 336.15 592.89 337.17Q592.54 337.95 592.46 338.89M613.31 350L608.33 350L608.33 331.44L613.14 331.44L613.14 334.68L613.34 334.68Q613.86 332.95 615.06 332.07Q616.26 331.19 617.82 331.19Q618.21 331.19 618.66 331.23Q619.10 331.27 619.44 331.36L619.44 335.81Q619.10 335.69 618.47 335.62Q617.84 335.56 617.28 335.56Q616.15 335.56 615.24 336.05Q614.32 336.54 613.82 337.41Q613.31 338.28 613.31 339.44L613.31 350M626.96 339.26L626.96 350L621.97 350L621.97 331.44L626.67 331.44L626.74 335.27Q627.45 333.51 628.68 332.47Q630.16 331.21 632.52 331.21Q634.44 331.21 635.88 332.05Q637.31 332.88 638.10 334.45Q638.89 336.02 638.89 338.20L638.89 350L633.91 350L633.91 339.06Q633.91 337.33 633.02 336.35Q632.13 335.37 630.56 335.37Q629.51 335.37 628.69 335.83Q627.87 336.29 627.41 337.15Q626.96 338.01 626.96 339.26M651.33 350.37Q648.49 350.37 646.43 349.20Q644.37 348.04 643.27 345.90Q642.16 343.76 642.16 340.82Q642.16 337.95 643.26 335.79Q644.35 333.63 646.36 332.42Q648.37 331.21 651.08 331.21Q652.90 331.21 654.48 331.79Q656.06 332.37 657.25 333.54Q658.45 334.71 659.12 336.47Q659.79 338.23 659.79 340.62L659.79 342.01L647.09 342.01Q647.14 343.43 647.64 344.42Q648.17 345.52 649.14 346.07Q650.11 346.61 651.41 346.61Q652.29 346.61 653 346.36Q653.72 346.12 654.22 345.63Q654.73 345.14 654.99 344.42L659.51 345.27Q659.06 346.80 657.95 347.95Q656.84 349.10 655.17 349.73Q653.50 350.37 651.33 350.37M647.13 338.89L654.99 338.89Q654.89 337.96 654.60 337.20Q654.15 336.14 653.28 335.55Q652.40 334.96 651.13 334.96Q649.83 334.96 648.93 335.56Q648.02 336.15 647.56 337.17Q647.21 337.95 647.13 338.89M668.74 331.44L672.21 331.44L672.21 335.24L668.74 335.24L668.74 344.57Q668.74 345.45 669.13 345.87Q669.52 346.30 670.43 346.30Q670.72 346.30 671.23 346.22Q671.74 346.15 672.01 346.08L672.72 349.82Q671.89 350.07 671.07 350.17Q670.25 350.27 669.50 350.27Q666.71 350.27 665.24 348.90Q663.76 347.54 663.76 345L663.76 335.24L661.20 335.24L661.20 331.44L663.76 331.44L663.76 327.02L668.74 327.02L668.74 331.44M691.40 350.37Q688.61 350.37 686.57 349.16Q684.53 347.96 683.42 345.81Q682.32 343.66 682.32 340.80Q682.32 337.91 683.42 335.76Q684.53 333.61 686.57 332.41Q688.61 331.21 691.40 331.21Q694.20 331.21 696.24 332.41Q698.27 333.61 699.38 335.76Q700.48 337.91 700.48 340.80Q700.48 343.66 699.38 345.81Q698.27 347.96 696.24 349.16Q694.20 350.37 691.40 350.37M691.40 346.45Q692.73 346.45 693.62 345.71Q694.52 344.97 694.97 343.68Q695.42 342.40 695.42 340.79Q695.42 339.14 694.97 337.86Q694.52 336.59 693.62 335.86Q692.73 335.13 691.40 335.13Q690.07 335.13 689.18 335.86Q688.29 336.59 687.85 337.86Q687.40 339.14 687.40 340.79Q687.40 342.40 687.85 343.68Q688.29 344.97 689.18 345.71Q690.07 346.45 691.40 346.45M708.73 356.94L703.75 356.94L703.75 331.44L708.65 331.44L708.65 334.56L708.88 334.56Q709.23 333.83 709.87 333.05Q710.51 332.27 711.55 331.74Q712.60 331.21 714.18 331.21Q716.23 331.21 717.94 332.27Q719.65 333.33 720.68 335.46Q721.70 337.58 721.70 340.75Q721.70 343.84 720.70 345.97Q719.70 348.11 717.99 349.21Q716.28 350.32 714.14 350.32Q712.63 350.32 711.59 349.80Q710.54 349.29 709.88 348.53Q709.23 347.78 708.88 347.03L708.73 347.03L708.73 356.94M712.62 346.31Q713.91 346.31 714.80 345.60Q715.69 344.89 716.14 343.63Q716.60 342.36 716.60 340.74Q716.60 339.11 716.14 337.86Q715.69 336.62 714.81 335.91Q713.93 335.19 712.62 335.19Q711.34 335.19 710.44 335.88Q709.54 336.57 709.08 337.81Q708.61 339.04 708.61 340.74Q708.61 342.41 709.09 343.67Q709.56 344.92 710.46 345.62Q711.35 346.31 712.62 346.31M733.37 350.37Q730.53 350.37 728.47 349.20Q726.41 348.04 725.31 345.90Q724.20 343.76 724.20 340.82Q724.20 337.95 725.30 335.79Q726.39 333.63 728.40 332.42Q730.41 331.21 733.12 331.21Q734.94 331.21 736.52 331.79Q738.10 332.37 739.29 333.54Q740.49 334.71 741.16 336.47Q741.83 338.23 741.83 340.62L741.83 342.01L729.13 342.01Q729.18 343.43 729.68 344.42Q730.21 345.52 731.18 346.07Q732.15 346.61 733.45 346.61Q734.33 346.61 735.04 346.36Q735.76 346.12 736.26 345.63Q736.77 345.14 737.04 344.42L741.55 345.27Q741.10 346.80 739.99 347.95Q738.88 349.10 737.21 349.73Q735.54 350.37 733.37 350.37M729.17 338.89L737.04 338.89Q736.94 337.96 736.64 337.20Q736.19 336.14 735.32 335.55Q734.45 334.96 733.17 334.96Q731.87 334.96 730.97 335.56Q730.06 336.15 729.60 337.17Q729.25 337.95 729.17 338.89M750.02 339.26L750.02 350L745.04 350L745.04 331.44L749.73 331.44L749.80 335.27Q750.52 333.51 751.74 332.47Q753.22 331.21 755.58 331.21Q757.50 331.21 758.94 332.05Q760.38 332.88 761.16 334.45Q761.95 336.02 761.95 338.20L761.95 350L756.97 350L756.97 339.06Q756.97 337.33 756.08 336.35Q755.20 335.37 753.62 335.37Q752.57 335.37 751.75 335.83Q750.93 336.29 750.47 337.15Q750.02 338.01 750.02 339.26M769.24 356.56L765.85 356.56L767.32 346.26L772.30 346.26L769.24 356.56M791.45 331.44L795.34 331.44L795.34 335.24L791.45 335.24L791.45 350L786.49 350L786.49 335.24L783.22 335.24L783.22 331.44L786.49 331.44L786.49 330.01Q786.49 328.04 787.28 326.72Q788.07 325.41 789.43 324.76Q790.79 324.10 792.51 324.10Q793.69 324.10 794.66 324.29Q795.64 324.48 796.08 324.62L795.19 328.37Q794.87 328.29 794.45 328.20Q794.03 328.12 793.53 328.12Q792.40 328.12 791.93 328.66Q791.45 329.20 791.45 330.18L791.45 331.44M803.52 350.37Q801.76 350.37 800.36 349.74Q798.96 349.12 798.15 347.88Q797.34 346.65 797.34 344.80Q797.34 343.26 797.92 342.21Q798.49 341.17 799.48 340.54Q800.47 339.91 801.72 339.57Q802.97 339.24 804.35 339.11Q805.96 338.94 806.95 338.80Q807.94 338.66 808.39 338.35Q808.85 338.05 808.85 337.45L808.85 337.37Q808.85 336.57 808.52 336.02Q808.19 335.47 807.53 335.18Q806.87 334.89 805.94 334.89Q804.98 334.89 804.27 335.18Q803.55 335.47 803.11 335.96Q802.66 336.44 802.44 337.03L797.88 336.29Q798.36 334.66 799.47 333.53Q800.58 332.40 802.23 331.80Q803.89 331.21 805.96 331.21Q807.46 331.21 808.87 331.56Q810.28 331.92 811.40 332.67Q812.52 333.42 813.17 334.62Q813.83 335.82 813.83 337.50L813.83 350L809.12 350L809.12 347.43L808.95 347.43Q808.50 348.29 807.75 348.95Q807.01 349.60 805.95 349.98Q804.90 350.37 803.52 350.37M804.93 346.86Q806.11 346.86 807 346.40Q807.89 345.93 808.38 345.14Q808.88 344.34 808.88 343.36L808.88 341.35Q808.67 341.52 808.22 341.65Q807.77 341.78 807.22 341.88Q806.67 341.98 806.14 342.06Q805.61 342.15 805.20 342.20Q804.28 342.33 803.59 342.63Q802.89 342.93 802.51 343.42Q802.13 343.91 802.13 344.67Q802.13 345.38 802.49 345.87Q802.86 346.36 803.49 346.61Q804.12 346.86 804.93 346.86M825.25 350.37Q823.01 350.37 821.28 349.73Q819.56 349.09 818.46 347.87Q817.37 346.65 817.05 344.92L821.68 344.12Q822.05 345.42 822.96 346.07Q823.87 346.71 825.40 346.71Q826.83 346.71 827.65 346.17Q828.47 345.63 828.47 344.80Q828.47 344.07 827.88 343.61Q827.29 343.14 826.08 342.89L822.88 342.23Q820.19 341.68 818.86 340.36Q817.53 339.04 817.53 336.97Q817.53 335.17 818.51 333.89Q819.49 332.60 821.23 331.90Q822.98 331.21 825.33 331.21Q827.53 331.21 829.14 331.81Q830.75 332.42 831.74 333.53Q832.74 334.64 833.07 336.15L828.65 336.93Q828.37 335.99 827.57 335.38Q826.76 334.78 825.40 334.78Q824.17 334.78 823.34 335.29Q822.51 335.81 822.51 336.67Q822.51 337.37 823.05 337.85Q823.59 338.33 824.90 338.59L828.24 339.26Q830.93 339.81 832.24 341.04Q833.55 342.28 833.55 344.27Q833.55 346.10 832.49 347.47Q831.43 348.84 829.56 349.60Q827.69 350.37 825.25 350.37M842.47 331.44L845.94 331.44L845.94 335.24L842.47 335.24L842.47 344.57Q842.47 345.45 842.86 345.87Q843.25 346.30 844.16 346.30Q844.44 346.30 844.96 346.22Q845.47 346.15 845.74 346.08L846.45 349.82Q845.62 350.07 844.80 350.17Q843.98 350.27 843.23 350.27Q840.44 350.27 838.96 348.90Q837.49 347.54 837.49 345L837.49 335.24L834.93 335.24L834.93 331.44L837.49 331.44L837.49 327.02L842.47 327.02L842.47 331.44M852.21 356.56L848.82 356.56L850.28 346.26L855.27 346.26L852.21 356.56M873.16 350.37Q871.40 350.37 870 349.74Q868.59 349.12 867.79 347.88Q866.98 346.65 866.98 344.80Q866.98 343.26 867.56 342.21Q868.13 341.17 869.12 340.54Q870.11 339.91 871.36 339.57Q872.61 339.24 873.99 339.11Q875.60 338.94 876.59 338.80Q877.58 338.66 878.03 338.35Q878.49 338.05 878.49 337.45L878.49 337.37Q878.49 336.57 878.16 336.02Q877.83 335.47 877.17 335.18Q876.51 334.89 875.58 334.89Q874.62 334.89 873.91 335.18Q873.19 335.47 872.75 335.96Q872.30 336.44 872.08 337.03L867.52 336.29Q868 334.66 869.11 333.53Q870.22 332.40 871.87 331.80Q873.53 331.21 875.60 331.21Q877.09 331.21 878.51 331.56Q879.92 331.92 881.04 332.67Q882.16 333.42 882.81 334.62Q883.47 335.82 883.47 337.50L883.47 350L878.76 350L878.76 347.43L878.59 347.43Q878.14 348.29 877.39 348.95Q876.65 349.60 875.59 349.98Q874.54 350.37 873.16 350.37M874.57 346.86Q875.75 346.86 876.64 346.40Q877.53 345.93 878.02 345.14Q878.52 344.34 878.52 343.36L878.52 341.35Q878.31 341.52 877.86 341.65Q877.41 341.78 876.86 341.88Q876.31 341.98 875.78 342.06Q875.25 342.15 874.84 342.20Q873.92 342.33 873.23 342.63Q872.53 342.93 872.15 343.42Q871.77 343.91 871.77 344.67Q871.77 345.38 872.13 345.87Q872.50 346.36 873.13 346.61Q873.76 346.86 874.57 346.86M892.50 339.26L892.50 350L887.52 350L887.52 331.44L892.22 331.44L892.28 335.27Q893 333.51 894.23 332.47Q895.70 331.21 898.06 331.21Q899.99 331.21 901.42 332.05Q902.86 332.88 903.65 334.45Q904.44 336.02 904.44 338.20L904.44 350L899.46 350L899.46 339.06Q899.46 337.33 898.57 336.35Q897.68 335.37 896.10 335.37Q895.06 335.37 894.24 335.83Q893.41 336.29 892.96 337.15Q892.50 338.01 892.50 339.26M915.26 350.32Q913.14 350.32 911.42 349.21Q909.70 348.11 908.70 345.97Q907.71 343.84 907.71 340.75Q907.71 337.58 908.74 335.46Q909.77 333.33 911.48 332.27Q913.19 331.21 915.24 331.21Q916.82 331.21 917.87 331.74Q918.91 332.27 919.56 333.05Q920.21 333.83 920.52 334.56L920.69 334.56L920.69 325.26L925.67 325.26L925.67 350L920.77 350L920.77 347.03L920.52 347.03Q920.19 347.78 919.54 348.53Q918.88 349.29 917.83 349.80Q916.79 350.32 915.26 350.32M916.80 346.31Q918.07 346.31 918.96 345.62Q919.86 344.92 920.32 343.67Q920.79 342.41 920.79 340.74Q920.79 339.04 920.33 337.81Q919.88 336.57 918.98 335.88Q918.08 335.19 916.80 335.19Q915.49 335.19 914.60 335.91Q913.72 336.62 913.27 337.86Q912.82 339.11 912.82 340.74Q912.82 342.36 913.28 343.63Q913.73 344.89 914.62 345.60Q915.51 346.31 916.80 346.31M942.55 350L937.57 350L937.57 331.44L942.39 331.44L942.39 334.68L942.58 334.68Q943.10 332.95 944.30 332.07Q945.51 331.19 947.07 331.19Q947.45 331.19 947.90 331.23Q948.35 331.27 948.68 331.36L948.68 335.81Q948.35 335.69 947.71 335.62Q947.08 335.56 946.52 335.56Q945.39 335.56 944.48 336.05Q943.56 336.54 943.06 337.41Q942.55 338.28 942.55 339.44L942.55 350M959.60 350.37Q956.76 350.37 954.70 349.20Q952.64 348.04 951.54 345.90Q950.44 343.76 950.44 340.82Q950.44 337.95 951.53 335.79Q952.63 333.63 954.64 332.42Q956.65 331.21 959.35 331.21Q961.18 331.21 962.76 331.79Q964.33 332.37 965.53 333.54Q966.72 334.71 967.40 336.47Q968.07 338.23 968.07 340.62L968.07 342.01L955.37 342.01Q955.42 343.43 955.92 344.42Q956.45 345.52 957.42 346.07Q958.39 346.61 959.68 346.61Q960.56 346.61 961.28 346.36Q961.99 346.12 962.50 345.63Q963 345.14 963.27 344.42L967.79 345.27Q967.34 346.80 966.22 347.95Q965.11 349.10 963.44 349.73Q961.78 350.37 959.60 350.37M955.40 338.89L963.27 338.89Q963.17 337.96 962.87 337.20Q962.42 336.14 961.55 335.55Q960.68 334.96 959.40 334.96Q958.11 334.96 957.20 335.56Q956.30 336.15 955.83 337.17Q955.48 337.95 955.40 338.89M976.45 350.37Q974.69 350.37 973.29 349.74Q971.89 349.12 971.08 347.88Q970.27 346.65 970.27 344.80Q970.27 343.26 970.85 342.21Q971.42 341.17 972.41 340.54Q973.40 339.91 974.65 339.57Q975.90 339.24 977.28 339.11Q978.89 338.94 979.88 338.80Q980.87 338.66 981.32 338.35Q981.78 338.05 981.78 337.45L981.78 337.37Q981.78 336.57 981.45 336.02Q981.12 335.47 980.46 335.18Q979.80 334.89 978.87 334.89Q977.91 334.89 977.20 335.18Q976.48 335.47 976.04 335.96Q975.59 336.44 975.37 337.03L970.81 336.29Q971.29 334.66 972.40 333.53Q973.51 332.40 975.16 331.80Q976.82 331.21 978.89 331.21Q980.39 331.21 981.80 331.56Q983.21 331.92 984.33 332.67Q985.45 333.42 986.10 334.62Q986.76 335.82 986.76 337.50L986.76 350L982.05 350L982.05 347.43L981.88 347.43Q981.43 348.29 980.68 348.95Q979.94 349.60 978.88 349.98Q977.83 350.37 976.45 350.37M977.86 346.86Q979.04 346.86 979.93 346.40Q980.82 345.93 981.31 345.14Q981.81 344.34 981.81 343.36L981.81 341.35Q981.60 341.52 981.15 341.65Q980.70 341.78 980.15 341.88Q979.60 341.98 979.07 342.06Q978.54 342.15 978.13 342.20Q977.21 342.33 976.52 342.63Q975.82 342.93 975.44 343.42Q975.06 343.91 975.06 344.67Q975.06 345.38 975.42 345.87Q975.79 346.36 976.42 346.61Q977.05 346.86 977.86 346.86M999.11 350.37Q996.31 350.37 994.27 349.16Q992.24 347.96 991.13 345.81Q990.03 343.66 990.03 340.80Q990.03 337.91 991.13 335.76Q992.24 333.61 994.27 332.41Q996.31 331.21 999.11 331.21Q1000.75 331.21 1002.15 331.64Q1003.54 332.07 1004.62 332.87Q1005.70 333.66 1006.40 334.81Q1007.10 335.96 1007.36 337.38L1002.73 338.25Q1002.58 337.52 1002.27 336.94Q1001.95 336.37 1001.50 335.96Q1001.05 335.56 1000.46 335.34Q999.87 335.13 999.16 335.13Q997.83 335.13 996.93 335.84Q996.02 336.55 995.57 337.83Q995.11 339.11 995.11 340.79Q995.11 342.43 995.57 343.71Q996.02 344.99 996.93 345.72Q997.83 346.45 999.16 346.45Q999.87 346.45 1000.47 346.22Q1001.07 346 1001.53 345.58Q1002 345.15 1002.32 344.55Q1002.63 343.96 1002.76 343.21L1007.40 344.06Q1007.13 345.53 1006.43 346.69Q1005.73 347.84 1004.66 348.67Q1003.58 349.50 1002.17 349.93Q1000.77 350.37 999.11 350.37M1015.60 339.26L1015.60 350L1010.62 350L1010.62 325.26L1015.50 325.26L1015.50 335.01Q1016.19 333.43 1017.32 332.47Q1018.80 331.21 1021.16 331.21Q1023.08 331.21 1024.52 332.05Q1025.95 332.88 1026.75 334.45Q1027.55 336.02 1027.55 338.20L1027.55 350L1022.55 350L1022.55 339.06Q1022.55 337.33 1021.66 336.35Q1020.78 335.37 1019.20 335.37Q1018.15 335.37 1017.33 335.83Q1016.51 336.29 1016.05 337.15Q1015.60 338.01 1015.60 339.26M1036.76 350.37Q1035 350.37 1033.60 349.74Q1032.20 349.12 1031.39 347.88Q1030.59 346.65 1030.59 344.80Q1030.59 343.26 1031.16 342.21Q1031.73 341.17 1032.72 340.54Q1033.71 339.91 1034.96 339.57Q1036.21 339.24 1037.59 339.11Q1039.20 338.94 1040.19 338.80Q1041.18 338.66 1041.63 338.35Q1042.09 338.05 1042.09 337.45L1042.09 337.37Q1042.09 336.57 1041.76 336.02Q1041.43 335.47 1040.77 335.18Q1040.12 334.89 1039.19 334.89Q1038.22 334.89 1037.51 335.18Q1036.79 335.47 1036.35 335.96Q1035.90 336.44 1035.68 337.03L1031.12 336.29Q1031.60 334.66 1032.71 333.53Q1033.82 332.40 1035.48 331.80Q1037.13 331.21 1039.20 331.21Q1040.70 331.21 1042.11 331.56Q1043.52 331.92 1044.64 332.67Q1045.76 333.42 1046.42 334.62Q1047.07 335.82 1047.07 337.50L1047.07 350L1042.36 350L1042.36 347.43L1042.19 347.43Q1041.74 348.29 1041 348.95Q1040.25 349.60 1039.19 349.98Q1038.14 350.37 1036.76 350.37M1038.17 346.86Q1039.35 346.86 1040.24 346.40Q1041.13 345.93 1041.63 345.14Q1042.12 344.34 1042.12 343.36L1042.12 341.35Q1041.91 341.52 1041.46 341.65Q1041.01 341.78 1040.46 341.88Q1039.92 341.98 1039.38 342.06Q1038.85 342.15 1038.44 342.20Q1037.53 342.33 1036.83 342.63Q1036.13 342.93 1035.75 343.42Q1035.37 343.91 1035.37 344.67Q1035.37 345.38 1035.73 345.87Q1036.10 346.36 1036.73 346.61Q1037.36 346.86 1038.17 346.86M1061.51 350.32Q1060 350.32 1058.96 349.80Q1057.91 349.29 1057.26 348.53Q1056.60 347.78 1056.25 347.03L1056.02 347.03L1056.02 350L1051.12 350L1051.12 325.26L1056.10 325.26L1056.10 334.56L1056.25 334.56Q1056.60 333.83 1057.24 333.05Q1057.88 332.27 1058.92 331.74Q1059.97 331.21 1061.55 331.21Q1063.61 331.21 1065.32 332.27Q1067.03 333.33 1068.05 335.46Q1069.07 337.58 1069.07 340.75Q1069.07 343.84 1068.07 345.97Q1067.08 348.11 1065.37 349.21Q1063.66 350.32 1061.51 350.32M1059.99 346.31Q1061.28 346.31 1062.17 345.60Q1063.06 344.89 1063.51 343.63Q1063.97 342.36 1063.97 340.74Q1063.97 339.11 1063.51 337.86Q1063.06 336.62 1062.18 335.91Q1061.30 335.19 1059.99 335.19Q1058.71 335.19 1057.81 335.88Q1056.92 336.57 1056.45 337.81Q1055.99 339.04 1055.99 340.74Q1055.99 342.41 1056.46 343.67Q1056.93 344.92 1057.83 345.62Q1058.72 346.31 1059.99 346.31M1072.35 325.26L1077.33 325.26L1077.33 350L1072.35 350L1072.35 325.26M1089.75 350.37Q1086.91 350.37 1084.85 349.20Q1082.80 348.04 1081.69 345.90Q1080.59 343.76 1080.59 340.82Q1080.59 337.95 1081.68 335.79Q1082.78 333.63 1084.79 332.42Q1086.80 331.21 1089.50 331.21Q1091.33 331.21 1092.91 331.79Q1094.48 332.37 1095.68 333.54Q1096.87 334.71 1097.55 336.47Q1098.22 338.23 1098.22 340.62L1098.22 342.01L1085.52 342.01Q1085.57 343.43 1086.07 344.42Q1086.60 345.52 1087.57 346.07Q1088.54 346.61 1089.83 346.61Q1090.71 346.61 1091.43 346.36Q1092.14 346.12 1092.65 345.63Q1093.15 345.14 1093.42 344.42L1097.94 345.27Q1097.49 346.80 1096.38 347.95Q1095.26 349.10 1093.59 349.73Q1091.93 350.37 1089.75 350.37M1085.55 338.89L1093.42 338.89Q1093.32 337.96 1093.02 337.20Q1092.57 336.14 1091.70 335.55Q1090.83 334.96 1089.55 334.96Q1088.26 334.96 1087.35 335.56Q1086.45 336.15 1085.98 337.17Q1085.63 337.95 1085.55 338.89M1104.97 350.32Q1103.76 350.32 1102.93 349.49Q1102.10 348.67 1102.10 347.46Q1102.10 346.25 1102.93 345.43Q1103.76 344.60 1104.97 344.60Q1106.19 344.60 1107.02 345.43Q1107.85 346.25 1107.85 347.46Q1107.85 348.67 1107.02 349.49Q1106.19 350.32 1104.97 350.32" fill="#aab3c6"/>

  <!-- url -->
  <path d="M640.88 423.49L640.88 432L638.60 432L638.60 417.81L640.79 417.81L640.80 420.43Q641.40 419.10 642.34 418.45Q643.53 417.63 645.15 417.63Q646.58 417.63 647.66 418.22Q648.74 418.81 649.34 420Q649.94 421.18 649.94 422.99L649.94 432L647.66 432L647.66 423.18Q647.66 421.54 646.80 420.61Q645.95 419.69 644.46 419.69Q643.44 419.69 642.63 420.13Q641.82 420.57 641.35 421.42Q640.88 422.28 640.88 423.49M660.73 432.30Q658.80 432.30 657.35 431.39Q655.90 430.48 655.08 428.83Q654.27 427.18 654.27 424.99Q654.27 422.77 655.08 421.11Q655.90 419.46 657.35 418.54Q658.80 417.63 660.73 417.63Q662.68 417.63 664.14 418.54Q665.60 419.46 666.41 421.11Q667.22 422.77 667.22 424.99Q667.22 427.18 666.41 428.83Q665.60 430.48 664.14 431.39Q662.68 432.30 660.73 432.30M660.73 430.26Q662.17 430.26 663.09 429.52Q664.02 428.79 664.47 427.59Q664.91 426.39 664.91 424.99Q664.91 423.58 664.47 422.37Q664.02 421.16 663.09 420.42Q662.17 419.67 660.73 419.67Q659.31 419.67 658.40 420.42Q657.48 421.16 657.04 422.36Q656.59 423.57 656.59 424.99Q656.59 426.39 657.04 427.59Q657.48 428.79 658.40 429.52Q659.31 430.26 660.73 430.26M678.05 432L675.65 432L670.23 417.81L672.73 417.81L675.75 426.22Q676.23 427.53 676.57 428.83Q676.71 429.37 676.85 429.91Q676.99 429.37 677.15 428.83Q677.48 427.53 677.94 426.22L680.97 417.81L683.47 417.81L678.05 432M691.13 432.33Q689.79 432.33 688.69 431.82Q687.59 431.31 686.94 430.34Q686.30 429.36 686.30 427.96Q686.30 426.74 686.78 425.98Q687.26 425.22 688.07 424.78Q688.87 424.34 689.85 424.13Q690.83 423.91 691.82 423.79Q693.09 423.62 693.89 423.53Q694.69 423.44 695.07 423.23Q695.46 423.01 695.46 422.49L695.46 422.42Q695.46 421.53 695.13 420.91Q694.80 420.29 694.14 419.96Q693.48 419.63 692.49 419.63Q691.48 419.63 690.75 419.95Q690.03 420.27 689.58 420.75Q689.13 421.22 688.90 421.72L686.70 420.99Q687.25 419.70 688.17 418.97Q689.10 418.24 690.22 417.93Q691.34 417.63 692.43 417.63Q693.14 417.63 694.05 417.80Q694.95 417.97 695.80 418.48Q696.64 418.99 697.19 419.98Q697.75 420.98 697.75 422.64L697.75 432L695.50 432L695.50 430.07L695.35 430.07Q695.11 430.57 694.57 431.09Q694.04 431.62 693.19 431.97Q692.34 432.33 691.13 432.33M691.53 430.31Q692.80 430.31 693.67 429.82Q694.55 429.32 695 428.53Q695.46 427.73 695.46 426.87L695.46 424.90Q695.32 425.07 694.85 425.20Q694.38 425.33 693.78 425.44Q693.18 425.54 692.61 425.61Q692.05 425.68 691.72 425.72Q690.89 425.82 690.17 426.06Q689.46 426.31 689.02 426.79Q688.59 427.26 688.59 428.08Q688.59 428.81 688.97 429.31Q689.35 429.80 690.02 430.06Q690.68 430.31 691.53 430.31M705.04 437.31L702.76 437.31L702.76 417.81L704.97 417.81L704.97 420.08L705.22 420.08Q705.46 419.70 705.89 419.12Q706.33 418.54 707.14 418.09Q707.95 417.63 709.33 417.63Q711.11 417.63 712.46 418.52Q713.82 419.41 714.58 421.05Q715.35 422.69 715.35 424.94Q715.35 427.20 714.59 428.85Q713.83 430.50 712.48 431.40Q711.12 432.30 709.35 432.30Q708 432.30 707.18 431.84Q706.35 431.38 705.91 430.79Q705.46 430.20 705.22 429.80L705.04 429.80L705.04 437.31M709 430.26Q710.34 430.26 711.23 429.54Q712.13 428.83 712.58 427.61Q713.03 426.40 713.03 424.92Q713.03 423.44 712.58 422.26Q712.14 421.07 711.25 420.37Q710.35 419.67 709 419.67Q707.70 419.67 706.81 420.33Q705.92 420.99 705.47 422.17Q705.02 423.34 705.02 424.92Q705.02 426.49 705.48 427.70Q705.93 428.90 706.83 429.58Q707.72 430.26 709 430.26M721.96 432L719.68 432L719.68 417.81L721.89 417.81L721.89 419.99L722.04 419.99Q722.43 418.91 723.44 418.26Q724.45 417.60 725.72 417.60Q725.98 417.60 726.32 417.62Q726.67 417.63 726.88 417.64L726.88 419.94Q726.77 419.91 726.37 419.86Q725.96 419.81 725.51 419.81Q724.49 419.81 723.68 420.24Q722.88 420.66 722.42 421.41Q721.96 422.15 721.96 423.11L721.96 432M736.24 432.30Q734.31 432.30 732.86 431.39Q731.41 430.48 730.59 428.83Q729.78 427.18 729.78 424.99Q729.78 422.77 730.59 421.11Q731.41 419.46 732.86 418.54Q734.31 417.63 736.24 417.63Q738.19 417.63 739.65 418.54Q741.10 419.46 741.92 421.11Q742.73 422.77 742.73 424.99Q742.73 427.18 741.92 428.83Q741.10 430.48 739.65 431.39Q738.19 432.30 736.24 432.30M736.24 430.26Q737.68 430.26 738.60 429.52Q739.53 428.79 739.98 427.59Q740.42 426.39 740.42 424.99Q740.42 423.58 739.98 422.37Q739.53 421.16 738.60 420.42Q737.68 419.67 736.24 419.67Q734.82 419.67 733.91 420.42Q732.99 421.16 732.55 422.36Q732.10 423.57 732.10 424.99Q732.10 426.39 732.55 427.59Q732.99 428.79 733.91 429.52Q734.82 430.26 736.24 430.26M748.52 432L745.88 432L750.86 424.71L746.17 417.81L748.83 417.81L750.60 420.56Q751.28 421.63 751.79 422.55Q751.99 422.95 752.22 423.34Q752.43 422.95 752.63 422.55Q753.07 421.63 753.77 420.56L755.57 417.81L758.19 417.81L753.44 424.84L758.42 432L755.77 432L753.68 428.81Q753.01 427.77 752.53 426.87Q752.32 426.52 752.12 426.17Q751.93 426.52 751.75 426.87Q751.31 427.77 750.62 428.81L748.52 432M762.02 437.14L762.60 435.16L762.85 435.22Q763.54 435.40 764.12 435.32Q764.69 435.24 765.14 434.75Q765.60 434.27 765.94 433.26L766.35 432.08L760.93 417.81L763.43 417.81L766.45 426.22Q766.93 427.54 767.26 428.84Q767.40 429.37 767.54 429.91Q767.68 429.37 767.84 428.83Q768.17 427.53 768.64 426.22L771.68 417.81L774.17 417.81L767.94 434.12Q767.51 435.25 766.90 435.98Q766.30 436.71 765.50 437.06Q764.70 437.41 763.70 437.41Q763.09 437.41 762.64 437.32Q762.20 437.23 762.02 437.14M779.60 432.17Q778.89 432.17 778.39 431.66Q777.89 431.16 777.89 430.45Q777.89 429.74 778.39 429.24Q778.89 428.74 779.60 428.74Q780.31 428.74 780.81 429.24Q781.31 429.74 781.31 430.45Q781.31 431.16 780.81 431.66Q780.31 432.17 779.60 432.17M792.13 432.30Q790.20 432.30 788.75 431.39Q787.29 430.48 786.48 428.83Q785.67 427.18 785.67 424.99Q785.67 422.77 786.48 421.11Q787.29 419.46 788.75 418.54Q790.20 417.63 792.13 417.63Q794.07 417.63 795.53 418.54Q796.99 419.46 797.80 421.11Q798.62 422.77 798.62 424.99Q798.62 427.18 797.80 428.83Q796.99 430.48 795.53 431.39Q794.07 432.30 792.13 432.30M792.13 430.26Q793.56 430.26 794.49 429.52Q795.42 428.79 795.86 427.59Q796.31 426.39 796.31 424.99Q796.31 423.58 795.86 422.37Q795.42 421.16 794.49 420.42Q793.56 419.67 792.13 419.67Q790.71 419.67 789.79 420.42Q788.88 421.16 788.43 422.36Q787.99 423.57 787.99 424.99Q787.99 426.39 788.43 427.59Q788.88 428.79 789.79 429.52Q790.71 430.26 792.13 430.26M805.23 423.49L805.23 432L802.94 432L802.94 417.81L805.14 417.81L805.15 420.43Q805.75 419.10 806.69 418.45Q807.88 417.63 809.49 417.63Q810.93 417.63 812.01 418.22Q813.09 418.81 813.69 420Q814.29 421.18 814.29 422.99L814.29 432L812.01 432L812.01 423.18Q812.01 421.54 811.15 420.61Q810.29 419.69 808.81 419.69Q807.79 419.69 806.98 420.13Q806.17 420.57 805.70 421.42Q805.23 422.28 805.23 423.49M819.30 413.08L821.59 413.08L821.59 432L819.30 432L819.30 413.08M828.89 432L826.60 432L826.60 417.81L828.89 417.81L828.89 432M827.76 415.48Q827.11 415.48 826.64 415.04Q826.17 414.59 826.17 413.97Q826.17 413.34 826.64 412.90Q827.11 412.46 827.76 412.46Q828.42 412.46 828.89 412.90Q829.35 413.34 829.35 413.97Q829.35 414.59 828.89 415.04Q828.42 415.48 827.76 415.48M836.18 423.49L836.18 432L833.90 432L833.90 417.81L836.09 417.81L836.11 420.43Q836.70 419.10 837.64 418.45Q838.84 417.63 840.45 417.63Q841.88 417.63 842.96 418.22Q844.04 418.81 844.64 420Q845.25 421.18 845.25 422.99L845.25 432L842.96 432L842.96 423.18Q842.96 421.54 842.10 420.61Q841.25 419.69 839.76 419.69Q838.75 419.69 837.93 420.13Q837.12 420.57 836.65 421.42Q836.18 422.28 836.18 423.49M856.23 432.30Q854.17 432.30 852.68 431.39Q851.19 430.48 850.38 428.84Q849.57 427.20 849.57 425.02Q849.57 422.83 850.36 421.17Q851.15 419.51 852.59 418.57Q854.03 417.63 855.96 417.63Q857.09 417.63 858.19 418Q859.28 418.38 860.18 419.21Q861.07 420.04 861.61 421.40Q862.14 422.76 862.14 424.73L862.14 425.68L851.88 425.68Q851.93 427.05 852.43 428.04Q852.98 429.14 853.96 429.71Q854.94 430.27 856.24 430.27Q857.08 430.27 857.76 430.03Q858.45 429.79 858.94 429.30Q859.44 428.81 859.70 428.09L861.91 428.70Q861.58 429.77 860.80 430.58Q860.01 431.39 858.85 431.85Q857.69 432.30 856.23 432.30M851.90 423.75L859.82 423.75Q859.73 422.78 859.41 421.97Q858.97 420.89 858.10 420.28Q857.24 419.66 855.96 419.66Q854.68 419.66 853.76 420.29Q852.85 420.92 852.37 421.92Q851.96 422.78 851.90 423.75" fill="url(#brand)"/>
</svg>